<svg width="16" height="16" viewBox="0 0 16 16" fill="none" xmlns="http://www.w3.org/2000/svg">
<g clip-path="url(#clip0_926_14796)">
<path d="M7.99992 1.33325C4.31992 1.33325 1.33325 4.31992 1.33325 7.99992C1.33325 11.6799 4.31992 14.6666 7.99992 14.6666C11.6799 14.6666 14.6666 11.6799 14.6666 7.99992C14.6666 4.31992 11.6799 1.33325 7.99992 1.33325ZM7.99992 11.3333C7.63325 11.3333 7.33325 11.0333 7.33325 10.6666V7.99992C7.33325 7.63325 7.63325 7.33325 7.99992 7.33325C8.36659 7.33325 8.66659 7.63325 8.66659 7.99992V10.6666C8.66659 11.0333 8.36659 11.3333 7.99992 11.3333ZM8.66659 5.99992H7.33325V4.66659H8.66659V5.99992Z" fill="#3C61F2"/>
</g>
<defs>
<clipPath id="clip0_926_14796">
<rect width="16" height="16" fill="white"/>
</clipPath>
</defs>
</svg>
