<svg width="22" height="22" viewBox="0 0 22 22" fill="none" xmlns="http://www.w3.org/2000/svg">
<path fill-rule="evenodd" clip-rule="evenodd" d="M16.4175 2.521C15.4864 2.521 14.74 3.26736 14.74 4.1985C14.74 5.09493 15.4294 5.81739 16.3022 5.874C16.3754 5.8675 16.4504 5.8675 16.5236 5.874C17.3949 5.81745 18.0873 5.09591 18.095 4.19604C18.0937 3.27345 17.3461 2.521 16.4175 2.521ZM13.365 4.1985C13.365 2.50797 14.727 1.146 16.4175 1.146C18.1098 1.146 19.47 2.51887 19.47 4.1985V4.20341H19.47C19.4582 5.85242 18.1602 7.1913 16.5249 7.25055C16.4875 7.2519 16.45 7.2502 16.4129 7.24546C16.3758 7.2502 16.3383 7.2519 16.3009 7.25055C14.6665 7.19133 13.365 5.85219 13.365 4.1985Z" fill="black"/>
<path fill-rule="evenodd" clip-rule="evenodd" d="M15.4097 8.1138C16.8033 7.86966 18.3924 8.10242 19.5476 8.86897L19.5488 8.86979C20.3384 9.39619 20.8244 10.159 20.8244 11.0093C20.8244 11.8597 20.3384 12.6225 19.5488 13.1489C18.4022 13.9163 16.8321 14.1482 15.442 13.9148C15.0675 13.852 14.8149 13.4975 14.8778 13.123C14.9407 12.7485 15.2952 12.4959 15.6696 12.5588C16.7907 12.747 17.9883 12.5392 18.7849 12.0056L18.7861 12.0048C19.289 11.6695 19.4494 11.2956 19.4494 11.0093C19.4494 10.7231 19.2892 10.3494 18.7868 10.0143C17.9803 9.47947 16.7647 9.27236 15.6469 9.46817C15.2729 9.53369 14.9166 9.28362 14.8511 8.90962C14.7856 8.53562 15.0357 8.17932 15.4097 8.1138Z" fill="black"/>
<path fill-rule="evenodd" clip-rule="evenodd" d="M2.5025 4.1985C2.5025 2.51887 3.86274 1.146 5.555 1.146C7.24553 1.146 8.6075 2.50797 8.6075 4.1985C8.6075 5.85219 7.30598 7.19133 5.67156 7.25055C5.63415 7.2519 5.5967 7.2502 5.55959 7.24546C5.52248 7.2502 5.48503 7.2519 5.44761 7.25055C3.81234 7.1913 2.5143 5.85242 2.50252 4.20341L2.5025 4.1985ZM3.8775 4.19605C3.88518 5.09591 4.57763 5.81745 5.4489 5.874C5.52211 5.8675 5.59708 5.8675 5.67028 5.874C6.54305 5.81739 7.2325 5.09493 7.2325 4.1985C7.2325 3.26736 6.48614 2.521 5.555 2.521C4.62642 2.521 3.87882 3.27346 3.8775 4.19605Z" fill="black"/>
<path fill-rule="evenodd" clip-rule="evenodd" d="M3.18574 10.0143C3.99219 9.47946 5.20778 9.27236 6.32554 9.46817C6.69954 9.53369 7.05584 9.28362 7.12136 8.90962C7.18688 8.53562 6.9368 8.17932 6.5628 8.1138C5.16918 7.86966 3.58011 8.10242 2.42489 8.86897L2.42489 8.86897L2.42365 8.86979C1.63405 9.39619 1.14813 10.159 1.14813 11.0093C1.14813 11.8595 1.63379 12.6221 2.42303 13.1484C3.56975 13.9162 5.14013 14.1483 6.5305 13.9148C6.90495 13.852 7.15755 13.4975 7.09468 13.123C7.03182 12.7485 6.6773 12.4959 6.30285 12.5588C5.1818 12.747 3.98417 12.5392 3.18761 12.0056L3.18636 12.0048C2.68347 11.6695 2.52313 11.2956 2.52313 11.0093C2.52313 10.7231 2.68333 10.3494 3.18574 10.0143Z" fill="black"/>
<path fill-rule="evenodd" clip-rule="evenodd" d="M10.9175 9.36865C9.98641 9.36865 9.24005 10.115 9.24005 11.0462C9.24005 11.9426 9.92951 12.665 10.8023 12.7217C10.8765 12.7151 10.9526 12.7152 11.0267 12.7219C11.8909 12.6724 12.5873 11.9484 12.595 11.0437C12.5937 10.1211 11.8461 9.36865 10.9175 9.36865ZM7.86505 11.0462C7.86505 9.35563 9.22702 7.99365 10.9175 7.99365C12.6098 7.99365 13.9701 9.36653 13.9701 11.0462V11.0511H13.97C13.9583 12.6956 12.6636 14.0507 11.02 14.0984C10.9842 14.0994 10.9484 14.0976 10.913 14.0931C10.8759 14.0979 10.8384 14.0996 10.801 14.0982C9.16658 14.039 7.86505 12.6998 7.86505 11.0462Z" fill="black"/>
<path fill-rule="evenodd" clip-rule="evenodd" d="M11.0035 14.8823C12.0746 14.8823 13.1827 15.1491 14.0489 15.7265C14.8385 16.2529 15.3244 17.0157 15.3244 17.8661C15.3244 18.7163 14.8386 19.479 14.0492 20.0054C13.1793 20.5869 12.0716 20.8567 11 20.8567C9.92845 20.8567 8.82076 20.587 7.95088 20.0054C7.16145 19.479 6.67566 18.7163 6.67566 17.8661C6.67566 17.0157 7.16157 16.2529 7.95118 15.7265L7.95283 15.7254L7.95283 15.7254C8.82273 15.1491 9.93215 14.8823 11.0035 14.8823ZM8.71308 16.8712C8.21082 17.2063 8.05066 17.5799 8.05066 17.8661C8.05066 18.1524 8.21099 18.5263 8.71389 18.8615L8.71471 18.8621C9.31142 19.2611 10.1377 19.4817 11 19.4817C11.8624 19.4817 12.6886 19.2611 13.2854 18.8621L13.2862 18.8615C13.7891 18.5263 13.9494 18.1524 13.9494 17.8661C13.9494 17.5798 13.7891 17.2059 13.2862 16.8706C12.6949 16.4764 11.8688 16.2573 11.0035 16.2573C10.1387 16.2573 9.30978 16.4761 8.71308 16.8712Z" fill="black"/>
</svg>
