<svg width="22" height="22" viewBox="0 0 22 22" fill="none" xmlns="http://www.w3.org/2000/svg">
<path fill-rule="evenodd" clip-rule="evenodd" d="M2.17577 6.24913C2.9874 5.28419 4.37891 4.8125 6.4167 4.8125H15.5834C17.6211 4.8125 19.0127 5.28419 19.8243 6.24913C20.628 7.20469 20.7045 8.46006 20.5757 9.63061L19.8878 16.9674C19.7869 17.9098 19.5503 18.943 18.7088 19.7117C17.8736 20.4748 16.5796 20.8542 14.6667 20.8542H7.33336C5.42042 20.8542 4.12643 20.4748 3.29122 19.7117C2.44978 18.943 2.21325 17.9098 2.11227 16.9674L2.1113 16.9583L1.42439 9.63063C1.29557 8.46008 1.37202 7.2047 2.17577 6.24913ZM3.22804 7.13421C2.79562 7.6483 2.6739 8.42076 2.79169 9.48522L2.79296 9.49665L3.47993 16.8254C3.57164 17.6773 3.76149 18.279 4.21863 18.6966C4.68279 19.1206 5.56131 19.4792 7.33336 19.4792H14.6667C16.4387 19.4792 17.3173 19.1206 17.7814 18.6966C18.2386 18.279 18.4284 17.6773 18.5201 16.8254L19.2083 9.48521C19.3261 8.42075 19.2044 7.6483 18.772 7.13421C18.3461 6.62789 17.4597 6.1875 15.5834 6.1875H6.4167C4.54031 6.1875 3.65391 6.62789 3.22804 7.13421Z" fill="black"/>
<path fill-rule="evenodd" clip-rule="evenodd" d="M8.06092 3.71301C8.02198 4.01128 8.02088 4.35024 8.02088 4.76683V5.50016C8.02088 5.87986 7.71307 6.18766 7.33338 6.18766C6.95368 6.18766 6.64588 5.87986 6.64588 5.50016L6.64587 4.743C6.64585 4.35477 6.64583 3.93072 6.69749 3.535C6.75103 3.12497 6.86574 2.68967 7.13448 2.30084C7.69982 1.48286 8.73543 1.146 10.2667 1.146H11.7334C13.2647 1.146 14.3003 1.48286 14.8656 2.30084C15.1343 2.68967 15.2491 3.12497 15.3026 3.535C15.3543 3.93073 15.3542 4.35478 15.3542 4.74301L15.3542 5.50016C15.3542 5.87986 15.0464 6.18766 14.6667 6.18766C14.287 6.18766 13.9792 5.87986 13.9792 5.50016V4.76683C13.9792 4.35024 13.9781 4.01128 13.9392 3.71301C13.901 3.42092 13.8324 3.2243 13.7345 3.08261C13.5665 2.83955 13.1354 2.521 11.7334 2.521H10.2667C8.86466 2.521 8.4336 2.83955 8.26561 3.08261C8.16768 3.2243 8.09906 3.42092 8.06092 3.71301Z" fill="black"/>
<path fill-rule="evenodd" clip-rule="evenodd" d="M9.85493 11.6882C9.85421 11.7537 9.8542 11.8283 9.8542 11.9167V12.8608C9.8542 13.1189 9.85645 13.3087 9.87886 13.4698C9.90041 13.6246 9.93463 13.7 9.96364 13.7409C9.99599 13.7865 10.1572 13.9792 11 13.9792C11.8467 13.9792 12.006 13.7847 12.0376 13.7395C12.0668 13.6978 12.1009 13.6213 12.1221 13.4646C12.1442 13.3017 12.1459 13.111 12.1459 12.8517V11.9167C12.1459 11.8283 12.1458 11.7537 12.1451 11.6882C12.0797 11.6875 12.0051 11.6875 11.9167 11.6875H10.0834C9.99495 11.6875 9.92036 11.6875 9.85493 11.6882ZM10.0533 10.3125C10.0633 10.3125 10.0733 10.3125 10.0834 10.3125H11.9167C11.9267 10.3125 11.9368 10.3125 11.9468 10.3125C12.1495 10.3125 12.3549 10.3124 12.5226 10.331C12.6934 10.35 12.9772 10.4008 13.2049 10.6285C13.4326 10.8561 13.4834 11.1399 13.5023 11.3108C13.521 11.4784 13.5209 11.6839 13.5209 11.8866C13.5209 11.8966 13.5209 11.9066 13.5209 11.9167V12.862C13.5209 13.1 13.5209 13.3817 13.4847 13.649C13.4472 13.9263 13.365 14.241 13.1639 14.5283C12.7349 15.1407 11.9776 15.3542 11 15.3542C10.0278 15.3542 9.27241 15.1435 8.84184 14.536C8.63939 14.2504 8.55559 13.9367 8.51698 13.6593C8.47924 13.3881 8.4792 13.1024 8.4792 12.8608V11.9167C8.4792 11.9066 8.47919 11.8966 8.47919 11.8866C8.47915 11.6839 8.4791 11.4784 8.49772 11.3108C8.51671 11.1399 8.56747 10.8561 8.79514 10.6285C9.02282 10.4008 9.30663 10.35 9.47749 10.331C9.64512 10.3124 9.85054 10.3125 10.0533 10.3125Z" fill="black"/>
<path fill-rule="evenodd" clip-rule="evenodd" d="M20.4019 9.67918C20.6252 9.98625 20.5573 10.4162 20.2503 10.6396C18.0355 12.2503 15.505 13.2084 12.9193 13.534C12.5426 13.5814 12.1987 13.3145 12.1513 12.9378C12.1038 12.5611 12.3708 12.2172 12.7475 12.1698C15.1117 11.872 17.4213 10.9968 19.4415 9.52754C19.7486 9.30421 20.1786 9.3721 20.4019 9.67918Z" fill="black"/>
<path fill-rule="evenodd" clip-rule="evenodd" d="M1.83434 9.94281C2.0488 9.62948 2.47666 9.54933 2.78999 9.76378C4.75981 11.112 6.98111 11.9246 9.24318 12.1779C9.62052 12.2201 9.89216 12.5603 9.84991 12.9376C9.80766 13.315 9.46751 13.5866 9.09018 13.5444C6.60391 13.266 4.16855 12.3736 2.01337 10.8985C1.70003 10.684 1.61988 10.2561 1.83434 9.94281Z" fill="black"/>
</svg>
