<svg width="20" height="20" viewBox="0 0 20 20" fill="none" xmlns="http://www.w3.org/2000/svg">
<path fill-rule="evenodd" clip-rule="evenodd" d="M12.0347 1.03474C12.6674 0.402 13.5607 0.145874 14.5833 0.145874H16.4166C17.4393 0.145874 18.3325 0.402 18.9653 1.03474C19.598 1.66748 19.8541 2.56073 19.8541 3.58337V5.41671C19.8541 6.43935 19.598 7.33261 18.9653 7.96534C18.3325 8.59808 17.4393 8.85421 16.4166 8.85421H14.5833C13.5607 8.85421 12.6674 8.59808 12.0347 7.96534C11.4019 7.33261 11.1458 6.43935 11.1458 5.41671V3.58337C11.1458 2.56073 11.4019 1.66748 12.0347 1.03474ZM13.0069 2.00701C12.723 2.29094 12.5208 2.77268 12.5208 3.58337V5.41671C12.5208 6.2274 12.723 6.70914 13.0069 6.99307C13.2909 7.277 13.7726 7.47921 14.5833 7.47921H16.4166C17.2273 7.47921 17.7091 7.277 17.993 6.99307C18.2769 6.70914 18.4791 6.2274 18.4791 5.41671V3.58337C18.4791 2.77268 18.2769 2.29094 17.993 2.00701C17.7091 1.72308 17.2273 1.52087 16.4166 1.52087H14.5833C13.7726 1.52087 13.2909 1.72308 13.0069 2.00701Z" fill="#3E97FF"/>
<path fill-rule="evenodd" clip-rule="evenodd" d="M1.03468 12.0347C1.66742 11.402 2.56067 11.1459 3.58331 11.1459H5.41665C6.43929 11.1459 7.33254 11.402 7.96528 12.0347C8.59802 12.6675 8.85415 13.5607 8.85415 14.5834V16.4167C8.85415 17.4393 8.59802 18.3326 7.96528 18.9653C7.33254 19.5981 6.43929 19.8542 5.41665 19.8542H3.58331C2.56067 19.8542 1.66742 19.5981 1.03468 18.9653C0.401939 18.3326 0.145813 17.4393 0.145813 16.4167V14.5834C0.145813 13.5607 0.401939 12.6675 1.03468 12.0347ZM2.00695 13.007C1.72302 13.2909 1.52081 13.7727 1.52081 14.5834V16.4167C1.52081 17.2274 1.72302 17.7091 2.00695 17.9931C2.29088 18.277 2.77262 18.4792 3.58331 18.4792H5.41665C6.22734 18.4792 6.70908 18.277 6.99301 17.9931C7.27694 17.7091 7.47915 17.2274 7.47915 16.4167V14.5834C7.47915 13.7727 7.27694 13.2909 6.99301 13.007C6.70908 12.7231 6.22734 12.5209 5.41665 12.5209H3.58331C2.77262 12.5209 2.29088 12.7231 2.00695 13.007Z" fill="#3E97FF"/>
<path fill-rule="evenodd" clip-rule="evenodd" d="M4.49998 1.52087C2.85463 1.52087 1.52081 2.85469 1.52081 4.50004C1.52081 6.14539 2.85463 7.47921 4.49998 7.47921C6.14533 7.47921 7.47915 6.14539 7.47915 4.50004C7.47915 2.85469 6.14533 1.52087 4.49998 1.52087ZM0.145813 4.50004C0.145813 2.0953 2.09524 0.145874 4.49998 0.145874C6.90472 0.145874 8.85415 2.0953 8.85415 4.50004C8.85415 6.90478 6.90472 8.85421 4.49998 8.85421C2.09524 8.85421 0.145813 6.90478 0.145813 4.50004Z" fill="#3E97FF"/>
<path fill-rule="evenodd" clip-rule="evenodd" d="M15.5 12.5209C13.8546 12.5209 12.5208 13.8547 12.5208 15.5C12.5208 17.1454 13.8546 18.4792 15.5 18.4792C17.1453 18.4792 18.4791 17.1454 18.4791 15.5C18.4791 13.8547 17.1453 12.5209 15.5 12.5209ZM11.1458 15.5C11.1458 13.0953 13.0952 11.1459 15.5 11.1459C17.9047 11.1459 19.8541 13.0953 19.8541 15.5C19.8541 17.9048 17.9047 19.8542 15.5 19.8542C13.0952 19.8542 11.1458 17.9048 11.1458 15.5Z" fill="#3E97FF"/>
</svg>
