<svg width="246" height="45" viewBox="0 0 246 45" fill="none" xmlns="http://www.w3.org/2000/svg">
<g filter="url(#filter0_d_239_2925)">
<path d="M30.4722 21.2898C31.9168 20.0801 32.8355 18.2632 32.8355 16.2317C32.8355 14.2003 31.9168 12.3834 30.4722 11.1737C30.6378 11.0935 30.7971 11.0065 30.9489 10.9122C31.9071 10.3165 33.038 9.97241 34.2494 9.97241C37.7065 9.97241 40.5091 12.7749 40.5091 16.2317C40.5091 19.6886 37.7065 22.491 34.2494 22.491C33.038 22.491 31.9071 22.1469 30.9489 21.5513C30.7971 21.457 30.6378 21.37 30.4722 21.2898Z" fill="#3E97FF"/>
</g>
<g filter="url(#filter1_d_239_2925)">
<path d="M28.7335 17.2188C29.3797 15.449 29.2667 13.4162 28.2509 11.6569C27.2351 9.89755 25.531 8.78334 23.6751 8.45801C23.7784 8.30584 23.8728 8.15083 23.9571 7.99328C24.489 6.99828 25.2965 6.13485 26.3455 5.52921C29.3395 3.80075 33.1679 4.82649 34.8965 7.82028C36.625 10.8141 35.5992 14.6422 32.6052 16.3707C31.5562 16.9763 30.4046 17.2438 29.2769 17.207C29.0984 17.2011 28.9169 17.2055 28.7335 17.2188Z" fill="#3E97FF"/>
</g>
<g filter="url(#filter2_d_239_2925)">
<path d="M25.1918 14.5603C24.8664 12.7045 23.7521 11.0005 21.9927 9.98477C20.2333 8.96903 18.2004 8.85612 16.4305 9.50226C16.4439 9.31885 16.4482 9.13736 16.4423 8.95883C16.4055 7.83116 16.673 6.67971 17.2787 5.6307C19.0073 2.63692 22.8356 1.61117 25.8296 3.33963C28.8235 5.0681 29.8494 8.89624 28.1207 11.8901C27.5151 12.939 26.6516 13.7464 25.6565 14.2784C25.499 14.3626 25.344 14.457 25.1918 14.5603Z" fill="#3E97FF"/>
</g>
<g filter="url(#filter3_d_239_2925)">
<path d="M20.7932 14.0298C19.5835 12.5853 17.7665 11.6667 15.7348 11.6667C13.7032 11.6667 11.8862 12.5853 10.6765 14.0298C10.5964 13.8643 10.5093 13.705 10.415 13.5532C9.81924 12.595 9.47516 11.4642 9.47516 10.2529C9.47516 6.79593 12.2777 3.99353 15.7348 3.99353C19.192 3.99353 21.9945 6.79593 21.9945 10.2529C21.9945 11.4642 21.6504 12.595 21.0547 13.5532C20.9603 13.705 20.8733 13.8643 20.7932 14.0298Z" fill="#3E97FF"/>
</g>
<g filter="url(#filter4_d_239_2925)">
<path d="M16.7218 15.7682C14.9519 15.1221 12.9189 15.235 11.1595 16.2506C9.40011 17.2664 8.28584 18.9704 7.9605 20.8262C7.80832 20.7229 7.65329 20.6285 7.49573 20.5442C6.50068 20.0123 5.6372 19.2049 5.03152 18.1559C3.30295 15.1621 4.32876 11.334 7.32272 9.60551C10.3167 7.87704 14.145 8.90278 15.8736 11.8966C16.4793 12.9456 16.7468 14.097 16.7099 15.2247C16.7041 15.4032 16.7084 15.5847 16.7218 15.7682Z" fill="#3E97FF"/>
</g>
<g filter="url(#filter5_d_239_2925)">
<path d="M14.0611 19.3107C12.2051 19.636 10.501 20.7503 9.48524 22.5096C8.46944 24.2689 8.35652 26.3017 9.00271 28.0715C8.81926 28.0581 8.63775 28.0538 8.45918 28.0596C7.33146 28.0965 6.17995 27.829 5.13089 27.2234C2.13693 25.4948 1.11112 21.6668 2.83968 18.6729C4.56824 15.6792 8.3966 14.6534 11.3906 16.3819C12.4396 16.9875 13.247 17.8509 13.779 18.8459C13.8632 19.0034 13.9578 19.1585 14.0611 19.3107Z" fill="#3E97FF"/>
</g>
<g filter="url(#filter6_d_239_2925)">
<path d="M13.5283 23.7077C12.0837 24.9173 11.165 26.7343 11.165 28.7657C11.165 30.7972 12.0837 32.6141 13.5283 33.8238C13.3628 33.9038 13.2034 33.9909 13.0517 34.0852C12.0935 34.6809 10.9625 35.025 9.75113 35.025C6.29401 35.025 3.49146 32.2226 3.49146 28.7657C3.49146 25.3087 6.29401 22.5063 9.75113 22.5063C10.9625 22.5063 12.0935 22.8504 13.0517 23.4462C13.2034 23.5405 13.3628 23.6275 13.5283 23.7077Z" fill="#3E97FF"/>
</g>
<g filter="url(#filter7_d_239_2925)">
<path d="M15.2667 27.7802C14.6204 29.55 14.7333 31.5828 15.7492 33.3421C16.765 35.1015 18.4691 36.2156 20.325 36.5409C20.2217 36.6932 20.1273 36.8482 20.043 37.0058C19.5111 38.0007 18.7036 38.8641 17.6546 39.4698C14.6606 41.1983 10.8322 40.1725 9.10366 37.1787C7.37509 34.1849 8.40091 30.3568 11.3949 28.6283C12.4439 28.0226 13.5955 27.7552 14.7232 27.7921C14.9017 27.7979 15.0832 27.7936 15.2667 27.7802Z" fill="#3E97FF"/>
</g>
<g filter="url(#filter8_d_239_2925)">
<path d="M18.8117 30.4397C19.137 32.2955 20.2513 33.9995 22.0107 35.0151C23.7701 36.0309 25.8032 36.1438 27.5731 35.4977C27.5597 35.6812 27.5554 35.8626 27.5612 36.0412C27.5981 37.1688 27.3306 38.3203 26.7249 39.3693C24.9963 42.3631 21.168 43.3888 18.174 41.6603C15.18 39.9319 14.1542 36.1038 15.8828 33.11C16.4885 32.061 17.3519 31.2536 18.3469 30.7216C18.5045 30.6374 18.6596 30.5429 18.8117 30.4397Z" fill="#3E97FF"/>
</g>
<g filter="url(#filter9_d_239_2925)">
<path d="M23.2087 30.973C24.4185 32.4175 26.2355 33.3361 28.2671 33.3361C30.2988 33.3361 32.1158 32.4175 33.3255 30.973C33.4056 31.1386 33.4926 31.2979 33.587 31.4496C34.1827 32.4077 34.5268 33.5387 34.5268 34.75C34.5268 38.2069 31.7243 41.0093 28.2671 41.0093C24.81 41.0093 22.0074 38.2069 22.0074 34.75C22.0074 33.5387 22.3515 32.4077 22.9473 31.4496C23.0417 31.2979 23.1287 31.1386 23.2087 30.973Z" fill="#3E97FF"/>
</g>
<g filter="url(#filter10_d_239_2925)">
<path d="M27.2816 29.2341C29.0515 29.8803 31.0844 29.7674 32.8438 28.7517C34.6032 27.7359 35.7175 26.0319 36.0428 24.1761C36.195 24.2793 36.35 24.3739 36.5076 24.4581C37.5027 24.99 38.3661 25.7974 38.9718 26.8464C40.7004 29.8402 39.6746 33.6683 36.6807 35.3969C33.6867 37.1253 29.8584 36.0996 28.1297 33.1057C27.5241 32.0568 27.2566 30.9053 27.2934 29.7777C27.2993 29.5991 27.295 29.4176 27.2816 29.2341Z" fill="#3E97FF"/>
</g>
<g filter="url(#filter11_d_239_2925)">
<path d="M34.5185 22.4856C34.5173 22.4878 34.516 22.49 34.5147 22.4922C33.499 24.2515 31.7949 25.3657 29.939 25.691C30.0422 25.8433 30.1368 25.9983 30.221 26.1557C30.753 27.1508 31.5604 28.0142 32.6094 28.6198C35.6034 30.3484 39.4317 29.3225 41.1604 26.3288C42.6422 23.7621 42.0997 20.5822 40.0282 18.6379C39.1181 20.8218 37.0063 22.3796 34.5185 22.4856Z" fill="#3E97FF"/>
</g>
<path d="M55.5 34V10.7273H65.5455C67.2727 10.7273 68.7841 11.0682 70.0795 11.75C71.375 12.4318 72.3826 13.3902 73.1023 14.625C73.822 15.8598 74.1818 17.303 74.1818 18.9545C74.1818 20.6212 73.8106 22.0644 73.0682 23.2841C72.3333 24.5038 71.2992 25.4432 69.9659 26.1023C68.6402 26.7614 67.0909 27.0909 65.3182 27.0909H59.3182V22.1818H64.0455C64.7879 22.1818 65.4205 22.053 65.9432 21.7955C66.4735 21.5303 66.8788 21.1553 67.1591 20.6705C67.447 20.1856 67.5909 19.6136 67.5909 18.9545C67.5909 18.2879 67.447 17.7197 67.1591 17.25C66.8788 16.7727 66.4735 16.4091 65.9432 16.1591C65.4205 15.9015 64.7879 15.7727 64.0455 15.7727H61.8182V34H55.5ZM76.5909 34V16.5455H82.6818V19.8636H82.8636C83.1818 18.6364 83.6856 17.7386 84.375 17.1705C85.072 16.6023 85.8864 16.3182 86.8182 16.3182C87.0909 16.3182 87.3598 16.3409 87.625 16.3864C87.8977 16.4242 88.1591 16.4811 88.4091 16.5568V21.9091C88.0985 21.803 87.7159 21.7235 87.2614 21.6705C86.8068 21.6174 86.4167 21.5909 86.0909 21.5909C85.4773 21.5909 84.9242 21.7311 84.4318 22.0114C83.947 22.2841 83.5644 22.6705 83.2841 23.1705C83.0038 23.6629 82.8636 24.2424 82.8636 24.9091V34H76.5909ZM97.875 34.3182C95.9811 34.3182 94.3598 33.9432 93.0114 33.1932C91.6629 32.4356 90.6288 31.3826 89.9091 30.0341C89.1894 28.678 88.8295 27.1061 88.8295 25.3182C88.8295 23.5303 89.1894 21.9621 89.9091 20.6136C90.6288 19.2576 91.6629 18.2045 93.0114 17.4545C94.3598 16.697 95.9811 16.3182 97.875 16.3182C99.7689 16.3182 101.39 16.697 102.739 17.4545C104.087 18.2045 105.121 19.2576 105.841 20.6136C106.561 21.9621 106.92 23.5303 106.92 25.3182C106.92 27.1061 106.561 28.678 105.841 30.0341C105.121 31.3826 104.087 32.4356 102.739 33.1932C101.39 33.9432 99.7689 34.3182 97.875 34.3182ZM97.9205 29.6818C98.4508 29.6818 98.9091 29.5038 99.2955 29.1477C99.6818 28.7917 99.9811 28.2841 100.193 27.625C100.405 26.9659 100.511 26.1818 100.511 25.2727C100.511 24.3561 100.405 23.572 100.193 22.9205C99.9811 22.2614 99.6818 21.7538 99.2955 21.3977C98.9091 21.0417 98.4508 20.8636 97.9205 20.8636C97.3598 20.8636 96.8788 21.0417 96.4773 21.3977C96.0758 21.7538 95.7689 22.2614 95.5568 22.9205C95.3447 23.572 95.2386 24.3561 95.2386 25.2727C95.2386 26.1818 95.3447 26.9659 95.5568 27.625C95.7689 28.2841 96.0758 28.7917 96.4773 29.1477C96.8788 29.5038 97.3598 29.6818 97.9205 29.6818ZM109.466 16.5455H115.739V34.5909C115.739 36.1212 115.417 37.3182 114.773 38.1818C114.136 39.0455 113.242 39.6553 112.091 40.0114C110.939 40.3674 109.595 40.5455 108.057 40.5455C107.83 40.5455 107.621 40.5417 107.432 40.5341C107.235 40.5265 107.019 40.5152 106.784 40.5V35.8636C106.936 35.8788 107.068 35.8902 107.182 35.8977C107.288 35.9053 107.398 35.9091 107.511 35.9091C108.261 35.9091 108.773 35.7917 109.045 35.5568C109.326 35.3295 109.466 34.9621 109.466 34.4545V16.5455ZM112.602 14.7273C111.754 14.7273 111.027 14.447 110.42 13.8864C109.814 13.3258 109.511 12.6515 109.511 11.8636C109.511 11.0758 109.814 10.4015 110.42 9.84091C111.027 9.2803 111.754 9 112.602 9C113.458 9 114.186 9.2803 114.784 9.84091C115.39 10.4015 115.693 11.0758 115.693 11.8636C115.693 12.6515 115.39 13.3258 114.784 13.8864C114.186 14.447 113.458 14.7273 112.602 14.7273ZM127.298 34.3182C125.435 34.3182 123.829 33.9621 122.48 33.25C121.139 32.5303 120.105 31.5 119.378 30.1591C118.658 28.8106 118.298 27.197 118.298 25.3182C118.298 23.5152 118.662 21.9394 119.389 20.5909C120.116 19.2424 121.143 18.1932 122.469 17.4432C123.795 16.6932 125.359 16.3182 127.162 16.3182C128.48 16.3182 129.673 16.5227 130.741 16.9318C131.81 17.3409 132.723 17.9356 133.48 18.7159C134.238 19.4886 134.821 20.428 135.23 21.5341C135.639 22.6402 135.844 23.8864 135.844 25.2727V26.7273H120.253V23.2727H130.071C130.063 22.7727 129.935 22.3333 129.685 21.9545C129.442 21.5682 129.113 21.2689 128.696 21.0568C128.287 20.8371 127.821 20.7273 127.298 20.7273C126.791 20.7273 126.325 20.8371 125.901 21.0568C125.476 21.2689 125.135 21.5644 124.878 21.9432C124.628 22.322 124.495 22.7652 124.48 23.2727V27C124.48 27.5606 124.598 28.0606 124.832 28.5C125.067 28.9394 125.404 29.2841 125.844 29.5341C126.283 29.7841 126.813 29.9091 127.435 29.9091C127.866 29.9091 128.26 29.8485 128.616 29.7273C128.98 29.6061 129.291 29.4318 129.548 29.2045C129.806 28.9697 129.995 28.6894 130.116 28.3636H135.844C135.647 29.5758 135.181 30.6288 134.446 31.5227C133.711 32.4091 132.738 33.0985 131.526 33.5909C130.321 34.0758 128.912 34.3182 127.298 34.3182ZM146.812 34.3182C144.919 34.3182 143.297 33.9432 141.949 33.1932C140.6 32.4356 139.566 31.3826 138.847 30.0341C138.127 28.678 137.767 27.1061 137.767 25.3182C137.767 23.5303 138.127 21.9621 138.847 20.6136C139.566 19.2576 140.6 18.2045 141.949 17.4545C143.297 16.697 144.919 16.3182 146.812 16.3182C148.525 16.3182 150.006 16.6288 151.256 17.25C152.513 17.8636 153.487 18.7348 154.176 19.8636C154.866 20.9848 155.214 22.303 155.222 23.8182H149.403C149.32 22.9015 149.055 22.2045 148.608 21.7273C148.169 21.2424 147.6 21 146.903 21C146.358 21 145.881 21.1591 145.472 21.4773C145.063 21.7879 144.744 22.2614 144.517 22.8977C144.29 23.5265 144.176 24.3182 144.176 25.2727C144.176 26.2273 144.29 27.0227 144.517 27.6591C144.744 28.2879 145.063 28.7614 145.472 29.0795C145.881 29.3902 146.358 29.5455 146.903 29.5455C147.366 29.5455 147.775 29.4394 148.131 29.2273C148.487 29.0076 148.775 28.6894 148.994 28.2727C149.222 27.8485 149.358 27.3333 149.403 26.7273H155.222C155.199 28.2652 154.847 29.6061 154.165 30.75C153.483 31.8864 152.517 32.7652 151.267 33.3864C150.025 34.0076 148.54 34.3182 146.812 34.3182ZM168.219 16.5455V21.0909H156.719V16.5455H168.219ZM158.946 12.3636H165.219V28.3864C165.219 28.6288 165.26 28.8333 165.344 29C165.427 29.1591 165.556 29.2803 165.73 29.3636C165.904 29.4394 166.128 29.4773 166.401 29.4773C166.59 29.4773 166.81 29.4545 167.06 29.4091C167.317 29.3636 167.507 29.3258 167.628 29.2955L168.537 33.7045C168.257 33.7879 167.855 33.8902 167.332 34.0114C166.817 34.1326 166.204 34.2121 165.491 34.25C164.052 34.3258 162.844 34.178 161.866 33.8068C160.889 33.428 160.154 32.8333 159.662 32.0227C159.17 31.2121 158.931 30.197 158.946 28.9773V12.3636Z" fill="black"/>
<defs>
<filter id="filter0_d_239_2925" x="28.4722" y="7.97241" width="14.0369" height="16.5186" filterUnits="userSpaceOnUse" color-interpolation-filters="sRGB">
<feFlood flood-opacity="0" result="BackgroundImageFix"/>
<feColorMatrix in="SourceAlpha" type="matrix" values="0 0 0 0 0 0 0 0 0 0 0 0 0 0 0 0 0 0 127 0" result="hardAlpha"/>
<feOffset/>
<feGaussianBlur stdDeviation="1"/>
<feComposite in2="hardAlpha" operator="out"/>
<feColorMatrix type="matrix" values="0 0 0 0 1 0 0 0 0 1 0 0 0 0 1 0 0 0 0.25 0"/>
<feBlend mode="normal" in2="BackgroundImageFix" result="effect1_dropShadow_239_2925"/>
<feBlend mode="normal" in="SourceGraphic" in2="effect1_dropShadow_239_2925" result="shape"/>
</filter>
<filter id="filter1_d_239_2925" x="21.6751" y="2.68958" width="16.061" height="16.5292" filterUnits="userSpaceOnUse" color-interpolation-filters="sRGB">
<feFlood flood-opacity="0" result="BackgroundImageFix"/>
<feColorMatrix in="SourceAlpha" type="matrix" values="0 0 0 0 0 0 0 0 0 0 0 0 0 0 0 0 0 0 127 0" result="hardAlpha"/>
<feOffset/>
<feGaussianBlur stdDeviation="1"/>
<feComposite in2="hardAlpha" operator="out"/>
<feColorMatrix type="matrix" values="0 0 0 0 1 0 0 0 0 1 0 0 0 0 1 0 0 0 0.25 0"/>
<feBlend mode="normal" in2="BackgroundImageFix" result="effect1_dropShadow_239_2925"/>
<feBlend mode="normal" in="SourceGraphic" in2="effect1_dropShadow_239_2925" result="shape"/>
</filter>
<filter id="filter2_d_239_2925" x="14.4305" y="0.5" width="16.53" height="16.0603" filterUnits="userSpaceOnUse" color-interpolation-filters="sRGB">
<feFlood flood-opacity="0" result="BackgroundImageFix"/>
<feColorMatrix in="SourceAlpha" type="matrix" values="0 0 0 0 0 0 0 0 0 0 0 0 0 0 0 0 0 0 127 0" result="hardAlpha"/>
<feOffset/>
<feGaussianBlur stdDeviation="1"/>
<feComposite in2="hardAlpha" operator="out"/>
<feColorMatrix type="matrix" values="0 0 0 0 1 0 0 0 0 1 0 0 0 0 1 0 0 0 0.25 0"/>
<feBlend mode="normal" in2="BackgroundImageFix" result="effect1_dropShadow_239_2925"/>
<feBlend mode="normal" in="SourceGraphic" in2="effect1_dropShadow_239_2925" result="shape"/>
</filter>
<filter id="filter3_d_239_2925" x="7.47516" y="1.99353" width="16.5193" height="14.0363" filterUnits="userSpaceOnUse" color-interpolation-filters="sRGB">
<feFlood flood-opacity="0" result="BackgroundImageFix"/>
<feColorMatrix in="SourceAlpha" type="matrix" values="0 0 0 0 0 0 0 0 0 0 0 0 0 0 0 0 0 0 127 0" result="hardAlpha"/>
<feOffset/>
<feGaussianBlur stdDeviation="1"/>
<feComposite in2="hardAlpha" operator="out"/>
<feColorMatrix type="matrix" values="0 0 0 0 1 0 0 0 0 1 0 0 0 0 1 0 0 0 0.25 0"/>
<feBlend mode="normal" in2="BackgroundImageFix" result="effect1_dropShadow_239_2925"/>
<feBlend mode="normal" in="SourceGraphic" in2="effect1_dropShadow_239_2925" result="shape"/>
</filter>
<filter id="filter4_d_239_2925" x="2.19183" y="6.76587" width="16.53" height="16.0603" filterUnits="userSpaceOnUse" color-interpolation-filters="sRGB">
<feFlood flood-opacity="0" result="BackgroundImageFix"/>
<feColorMatrix in="SourceAlpha" type="matrix" values="0 0 0 0 0 0 0 0 0 0 0 0 0 0 0 0 0 0 127 0" result="hardAlpha"/>
<feOffset/>
<feGaussianBlur stdDeviation="1"/>
<feComposite in2="hardAlpha" operator="out"/>
<feColorMatrix type="matrix" values="0 0 0 0 1 0 0 0 0 1 0 0 0 0 1 0 0 0 0.25 0"/>
<feBlend mode="normal" in2="BackgroundImageFix" result="effect1_dropShadow_239_2925"/>
<feBlend mode="normal" in="SourceGraphic" in2="effect1_dropShadow_239_2925" result="shape"/>
</filter>
<filter id="filter5_d_239_2925" x="0" y="13.5422" width="16.0611" height="16.5293" filterUnits="userSpaceOnUse" color-interpolation-filters="sRGB">
<feFlood flood-opacity="0" result="BackgroundImageFix"/>
<feColorMatrix in="SourceAlpha" type="matrix" values="0 0 0 0 0 0 0 0 0 0 0 0 0 0 0 0 0 0 127 0" result="hardAlpha"/>
<feOffset/>
<feGaussianBlur stdDeviation="1"/>
<feComposite in2="hardAlpha" operator="out"/>
<feColorMatrix type="matrix" values="0 0 0 0 1 0 0 0 0 1 0 0 0 0 1 0 0 0 0.25 0"/>
<feBlend mode="normal" in2="BackgroundImageFix" result="effect1_dropShadow_239_2925"/>
<feBlend mode="normal" in="SourceGraphic" in2="effect1_dropShadow_239_2925" result="shape"/>
</filter>
<filter id="filter6_d_239_2925" x="1.49146" y="20.5063" width="14.0369" height="16.5187" filterUnits="userSpaceOnUse" color-interpolation-filters="sRGB">
<feFlood flood-opacity="0" result="BackgroundImageFix"/>
<feColorMatrix in="SourceAlpha" type="matrix" values="0 0 0 0 0 0 0 0 0 0 0 0 0 0 0 0 0 0 127 0" result="hardAlpha"/>
<feOffset/>
<feGaussianBlur stdDeviation="1"/>
<feComposite in2="hardAlpha" operator="out"/>
<feColorMatrix type="matrix" values="0 0 0 0 1 0 0 0 0 1 0 0 0 0 1 0 0 0 0.25 0"/>
<feBlend mode="normal" in2="BackgroundImageFix" result="effect1_dropShadow_239_2925"/>
<feBlend mode="normal" in="SourceGraphic" in2="effect1_dropShadow_239_2925" result="shape"/>
</filter>
<filter id="filter7_d_239_2925" x="6.26398" y="25.7802" width="16.061" height="16.5293" filterUnits="userSpaceOnUse" color-interpolation-filters="sRGB">
<feFlood flood-opacity="0" result="BackgroundImageFix"/>
<feColorMatrix in="SourceAlpha" type="matrix" values="0 0 0 0 0 0 0 0 0 0 0 0 0 0 0 0 0 0 127 0" result="hardAlpha"/>
<feOffset/>
<feGaussianBlur stdDeviation="1"/>
<feComposite in2="hardAlpha" operator="out"/>
<feColorMatrix type="matrix" values="0 0 0 0 1 0 0 0 0 1 0 0 0 0 1 0 0 0 0.25 0"/>
<feBlend mode="normal" in2="BackgroundImageFix" result="effect1_dropShadow_239_2925"/>
<feBlend mode="normal" in="SourceGraphic" in2="effect1_dropShadow_239_2925" result="shape"/>
</filter>
<filter id="filter8_d_239_2925" x="13.0431" y="28.4397" width="16.53" height="16.0603" filterUnits="userSpaceOnUse" color-interpolation-filters="sRGB">
<feFlood flood-opacity="0" result="BackgroundImageFix"/>
<feColorMatrix in="SourceAlpha" type="matrix" values="0 0 0 0 0 0 0 0 0 0 0 0 0 0 0 0 0 0 127 0" result="hardAlpha"/>
<feOffset/>
<feGaussianBlur stdDeviation="1"/>
<feComposite in2="hardAlpha" operator="out"/>
<feColorMatrix type="matrix" values="0 0 0 0 1 0 0 0 0 1 0 0 0 0 1 0 0 0 0.25 0"/>
<feBlend mode="normal" in2="BackgroundImageFix" result="effect1_dropShadow_239_2925"/>
<feBlend mode="normal" in="SourceGraphic" in2="effect1_dropShadow_239_2925" result="shape"/>
</filter>
<filter id="filter9_d_239_2925" x="20.0074" y="28.973" width="16.5193" height="14.0363" filterUnits="userSpaceOnUse" color-interpolation-filters="sRGB">
<feFlood flood-opacity="0" result="BackgroundImageFix"/>
<feColorMatrix in="SourceAlpha" type="matrix" values="0 0 0 0 0 0 0 0 0 0 0 0 0 0 0 0 0 0 127 0" result="hardAlpha"/>
<feOffset/>
<feGaussianBlur stdDeviation="1"/>
<feComposite in2="hardAlpha" operator="out"/>
<feColorMatrix type="matrix" values="0 0 0 0 1 0 0 0 0 1 0 0 0 0 1 0 0 0 0.25 0"/>
<feBlend mode="normal" in2="BackgroundImageFix" result="effect1_dropShadow_239_2925"/>
<feBlend mode="normal" in="SourceGraphic" in2="effect1_dropShadow_239_2925" result="shape"/>
</filter>
<filter id="filter10_d_239_2925" x="25.2816" y="22.1761" width="16.53" height="16.0603" filterUnits="userSpaceOnUse" color-interpolation-filters="sRGB">
<feFlood flood-opacity="0" result="BackgroundImageFix"/>
<feColorMatrix in="SourceAlpha" type="matrix" values="0 0 0 0 0 0 0 0 0 0 0 0 0 0 0 0 0 0 127 0" result="hardAlpha"/>
<feOffset/>
<feGaussianBlur stdDeviation="1"/>
<feComposite in2="hardAlpha" operator="out"/>
<feColorMatrix type="matrix" values="0 0 0 0 1 0 0 0 0 1 0 0 0 0 1 0 0 0 0.25 0"/>
<feBlend mode="normal" in2="BackgroundImageFix" result="effect1_dropShadow_239_2925"/>
<feBlend mode="normal" in="SourceGraphic" in2="effect1_dropShadow_239_2925" result="shape"/>
</filter>
<filter id="filter11_d_239_2925" x="27.939" y="16.6379" width="16.061" height="14.8215" filterUnits="userSpaceOnUse" color-interpolation-filters="sRGB">
<feFlood flood-opacity="0" result="BackgroundImageFix"/>
<feColorMatrix in="SourceAlpha" type="matrix" values="0 0 0 0 0 0 0 0 0 0 0 0 0 0 0 0 0 0 127 0" result="hardAlpha"/>
<feOffset/>
<feGaussianBlur stdDeviation="1"/>
<feComposite in2="hardAlpha" operator="out"/>
<feColorMatrix type="matrix" values="0 0 0 0 1 0 0 0 0 1 0 0 0 0 1 0 0 0 0.25 0"/>
<feBlend mode="normal" in2="BackgroundImageFix" result="effect1_dropShadow_239_2925"/>
<feBlend mode="normal" in="SourceGraphic" in2="effect1_dropShadow_239_2925" result="shape"/>
</filter>
</defs>
</svg>
