<svg width="43" height="43" viewBox="0 0 43 43" fill="none" xmlns="http://www.w3.org/2000/svg">
<path d="M7.18702 37.1064H35.8139C36.2789 37.1064 36.7359 36.9885 37.1402 36.7643C37.5445 36.5401 37.8824 36.2173 38.1208 35.8274C38.3592 35.4375 38.49 34.9938 38.5003 34.5398C38.5106 34.0858 38.4002 33.6369 38.1798 33.237L23.8672 7.27414C22.8518 5.43336 20.1492 5.43336 19.1338 7.27414L4.82118 33.237C4.60077 33.6369 4.49033 34.0858 4.50066 34.5398C4.511 34.9938 4.64175 35.4375 4.88014 35.8274C5.11854 36.2173 5.45641 36.5401 5.86075 36.7643C6.2651 36.9885 6.72207 37.1064 7.18702 37.1064Z" stroke="#78829D" stroke-width="3" stroke-linecap="round" stroke-linejoin="round"/>
<path d="M21.0179 16.5281L21.5 26.536L21.9812 16.5322C21.9842 16.4683 21.9738 16.4044 21.9506 16.3445C21.9274 16.2846 21.892 16.23 21.8465 16.1839C21.801 16.1379 21.7464 16.1013 21.6859 16.0766C21.6255 16.0519 21.5605 16.0394 21.4949 16.0401C21.4305 16.0407 21.3669 16.0539 21.3078 16.0789C21.2488 16.1039 21.1954 16.1403 21.151 16.1858C21.1065 16.2313 21.0718 16.285 21.049 16.3438C21.0261 16.4026 21.0155 16.4653 21.0179 16.5281Z" stroke="#78829D" stroke-width="3" stroke-linecap="round" stroke-linejoin="round"/>
<path d="M21.5 33.0869C21.1678 33.0869 20.843 32.9907 20.5668 32.8104C20.2906 32.6301 20.0753 32.3739 19.9482 32.0741C19.821 31.7743 19.7878 31.4445 19.8526 31.1262C19.9174 30.808 20.0774 30.5156 20.3123 30.2862C20.5472 30.0567 20.8465 29.9005 21.1723 29.8372C21.4981 29.7739 21.8359 29.8064 22.1428 29.9305C22.4497 30.0547 22.712 30.265 22.8966 30.5348C23.0812 30.8046 23.1797 31.1218 23.1797 31.4463C23.1797 31.8814 23.0027 32.2987 22.6877 32.6064C22.3727 32.9141 21.9455 33.0869 21.5 33.0869Z" fill="#78829D"/>
</svg>
