<svg width="16" height="16" viewBox="0 0 16 16" fill="none" xmlns="http://www.w3.org/2000/svg">
<g clip-path="url(#clip0_926_14788)">
<path d="M7.99992 1.33325C4.31992 1.33325 1.33325 4.31992 1.33325 7.99992C1.33325 11.6799 4.31992 14.6666 7.99992 14.6666C11.6799 14.6666 14.6666 11.6799 14.6666 7.99992C14.6666 4.31992 11.6799 1.33325 7.99992 1.33325ZM6.19325 10.8599L3.79992 8.46659C3.53992 8.20659 3.53992 7.78659 3.79992 7.52659C4.05992 7.26659 4.47992 7.26659 4.73992 7.52659L6.66659 9.44659L11.2533 4.85992C11.5133 4.59992 11.9333 4.59992 12.1933 4.85992C12.4533 5.11992 12.4533 5.53992 12.1933 5.79992L7.13325 10.8599C6.87992 11.1199 6.45325 11.1199 6.19325 10.8599Z" fill="#66C397"/>
</g>
<defs>
<clipPath id="clip0_926_14788">
<rect width="16" height="16" fill="white"/>
</clipPath>
</defs>
</svg>
