<svg width="22" height="22" viewBox="0 0 22 22" fill="none" xmlns="http://www.w3.org/2000/svg">
<path fill-rule="evenodd" clip-rule="evenodd" d="M13.0347 2.03486C13.6674 1.40212 14.5607 1.146 15.5833 1.146H17.4167C18.4393 1.146 19.3326 1.40212 19.9653 2.03486C20.5981 2.6676 20.8542 3.56085 20.8542 4.5835V6.41683C20.8542 7.43947 20.5981 8.33273 19.9653 8.96547C19.3326 9.5982 18.4393 9.85433 17.4167 9.85433H15.5833C14.5607 9.85433 13.6674 9.5982 13.0347 8.96547C12.402 8.33273 12.1458 7.43947 12.1458 6.41683V4.5835C12.1458 3.56085 12.402 2.6676 13.0347 2.03486ZM14.007 3.00713C13.7231 3.29106 13.5208 3.7728 13.5208 4.5835V6.41683C13.5208 7.22752 13.7231 7.70926 14.007 7.99319C14.2909 8.27712 14.7727 8.47933 15.5833 8.47933H17.4167C18.2274 8.47933 18.7091 8.27712 18.993 7.99319C19.277 7.70926 19.4792 7.22752 19.4792 6.41683V4.5835C19.4792 3.7728 19.277 3.29106 18.993 3.00713C18.7091 2.7232 18.2274 2.521 17.4167 2.521H15.5833C14.7727 2.521 14.2909 2.7232 14.007 3.00713Z" fill="black"/>
<path fill-rule="evenodd" clip-rule="evenodd" d="M2.03471 13.0349C2.66745 12.4021 3.5607 12.146 4.58334 12.146H6.41668C7.43932 12.146 8.33257 12.4021 8.96531 13.0349C9.59805 13.6676 9.85418 14.5609 9.85418 15.5835V17.4168C9.85418 18.4395 9.59805 19.3327 8.96531 19.9655C8.33257 20.5982 7.43932 20.8543 6.41668 20.8543H4.58334C3.5607 20.8543 2.66745 20.5982 2.03471 19.9655C1.40197 19.3327 1.14584 18.4395 1.14584 17.4168V15.5835C1.14584 14.5609 1.40197 13.6676 2.03471 13.0349ZM3.00698 14.0071C2.72305 14.2911 2.52084 14.7728 2.52084 15.5835V17.4168C2.52084 18.2275 2.72305 18.7093 3.00698 18.9932C3.29091 19.2771 3.77265 19.4793 4.58334 19.4793H6.41668C7.22737 19.4793 7.70911 19.2771 7.99304 18.9932C8.27697 18.7093 8.47918 18.2275 8.47918 17.4168V15.5835C8.47918 14.7728 8.27697 14.2911 7.99304 14.0071C7.70911 13.7232 7.22737 13.521 6.41668 13.521H4.58334C3.77265 13.521 3.29091 13.7232 3.00698 14.0071Z" fill="black"/>
<path fill-rule="evenodd" clip-rule="evenodd" d="M5.50001 2.521C3.85466 2.521 2.52084 3.85481 2.52084 5.50016C2.52084 7.14551 3.85466 8.47933 5.50001 8.47933C7.14536 8.47933 8.47918 7.14551 8.47918 5.50016C8.47918 3.85481 7.14536 2.521 5.50001 2.521ZM1.14584 5.50016C1.14584 3.09542 3.09527 1.146 5.50001 1.146C7.90475 1.146 9.85418 3.09542 9.85418 5.50016C9.85418 7.9049 7.90475 9.85433 5.50001 9.85433C3.09527 9.85433 1.14584 7.9049 1.14584 5.50016Z" fill="black"/>
<path fill-rule="evenodd" clip-rule="evenodd" d="M16.5 13.521C14.8547 13.521 13.5208 14.8548 13.5208 16.5002C13.5208 18.1455 14.8547 19.4793 16.5 19.4793C18.1454 19.4793 19.4792 18.1455 19.4792 16.5002C19.4792 14.8548 18.1454 13.521 16.5 13.521ZM12.1458 16.5002C12.1458 14.0954 14.0953 12.146 16.5 12.146C18.9047 12.146 20.8542 14.0954 20.8542 16.5002C20.8542 18.9049 18.9047 20.8543 16.5 20.8543C14.0953 20.8543 12.1458 18.9049 12.1458 16.5002Z" fill="black"/>
</svg>
