<svg width="22" height="22" viewBox="0 0 22 22" fill="none" xmlns="http://www.w3.org/2000/svg">
<path fill-rule="evenodd" clip-rule="evenodd" d="M11 8.9375C9.86091 8.9375 8.9375 9.86091 8.9375 11C8.9375 12.1391 9.86091 13.0625 11 13.0625C12.1391 13.0625 13.0625 12.1391 13.0625 11C13.0625 9.86091 12.1391 8.9375 11 8.9375ZM7.5625 11C7.5625 9.10152 9.10152 7.5625 11 7.5625C12.8985 7.5625 14.4375 9.10152 14.4375 11C14.4375 12.8985 12.8985 14.4375 11 14.4375C9.10152 14.4375 7.5625 12.8985 7.5625 11Z" fill="black"/>
<path fill-rule="evenodd" clip-rule="evenodd" d="M8.80316 3.45611C8.5578 3.04733 8.04107 2.92016 7.65733 3.14846L7.64733 3.15441L6.06145 4.06183C5.55969 4.34855 5.38658 4.9986 5.6736 5.49535L5.07831 5.83929L5.67312 5.49453C6.1636 6.34073 6.29545 7.2682 5.85732 8.02849C5.41924 8.78868 4.55104 9.13929 3.57498 9.13929C2.99453 9.13929 2.52081 9.61746 2.52081 10.1935V11.8068C2.52081 12.3828 2.99453 12.861 3.57498 12.861C4.55104 12.861 5.41924 13.2116 5.85732 13.9717C6.2954 14.7319 6.16363 15.6593 5.67331 16.5054C5.3867 17.0021 5.55948 17.6516 6.06108 17.9382L7.65738 18.8517C8.04111 19.08 8.55777 18.9529 8.80314 18.5442L8.90166 18.374C9.39197 17.5281 10.131 16.9516 11.008 16.9516C11.8857 16.9516 12.6224 17.5285 13.1083 18.3754C13.1085 18.3758 13.1087 18.3762 13.1089 18.3765L13.206 18.5441C13.4513 18.9529 13.9681 19.0801 14.3518 18.8518L14.3618 18.8458L15.9477 17.9384C16.4481 17.6525 16.6239 17.0114 16.3348 16.5036C15.8453 15.658 15.714 14.7314 16.1518 13.9717C16.5899 13.2116 17.4581 12.861 18.4341 12.861C19.0146 12.861 19.4883 12.3828 19.4883 11.8068V10.1935C19.4883 9.613 19.0101 9.13929 18.4341 9.13929C17.4581 9.13929 16.5899 8.78868 16.1518 8.02849C15.7138 7.26835 15.8455 6.34109 16.3357 5.49502C16.6225 4.99831 16.4497 4.3487 15.9481 4.06204L14.3518 3.14855C13.968 2.92025 13.4513 3.04733 13.206 3.45612L13.1075 3.62625C12.6172 4.47216 11.8781 5.04866 11.0011 5.04866C10.1236 5.04866 9.38684 4.47184 8.90101 3.62511C8.90074 3.62464 8.90047 3.62417 8.9002 3.6237L8.80316 3.45611ZM6.95976 1.96354C8.02257 1.33529 9.37067 1.72073 9.98666 2.75611L9.99084 2.76314L10.0916 2.93733L10.0931 2.93988C10.4323 3.53154 10.7861 3.67366 11.0011 3.67366C11.2172 3.67366 11.5737 3.53034 11.9175 2.93732C11.9174 2.93742 11.9176 2.93723 11.9175 2.93732L12.0224 2.75608C12.6384 1.7207 13.9866 1.33529 15.0494 1.96355L16.6302 2.8682C17.7968 3.53482 18.1924 5.02998 17.5261 6.18323L17.5256 6.18405C17.1819 6.77701 17.2359 7.15579 17.3432 7.34196C17.4505 7.52823 17.751 7.76429 18.4341 7.76429C19.7648 7.76429 20.8633 8.84891 20.8633 10.1935V11.8068C20.8633 13.1375 19.7787 14.236 18.4341 14.236C17.751 14.236 17.4505 14.472 17.3432 14.6583C17.2359 14.8444 17.1819 15.2232 17.5256 15.8162L17.5277 15.8199C18.1907 16.98 17.7977 18.4646 16.6306 19.1318C16.6305 19.1319 16.6307 19.1318 16.6306 19.1318L15.0493 20.0367C13.9865 20.6649 12.6384 20.2795 12.0225 19.2441L12.0183 19.2371L11.9175 19.0629L11.916 19.0604C11.5769 18.4687 11.2231 18.3266 11.008 18.3266C10.7919 18.3266 10.4354 18.4699 10.0916 19.0629C10.0916 19.063 10.0917 19.0628 10.0916 19.0629L9.9867 19.2442C9.37073 20.2795 8.02263 20.6649 6.95983 20.0367L5.37888 19.132C5.37876 19.132 5.37901 19.1321 5.37888 19.132C4.2126 18.4653 3.81678 16.9701 4.48303 15.817L4.48351 15.8162C4.8272 15.2232 4.77326 14.8444 4.66598 14.6583C4.55863 14.472 4.25809 14.236 3.57498 14.236C2.23043 14.236 1.14581 13.1375 1.14581 11.8068V10.1935C1.14581 8.86278 2.23043 7.76429 3.57498 7.76429C4.25809 7.76429 4.55863 7.52823 4.66598 7.34196C4.77326 7.15579 4.8272 6.77701 4.48351 6.18405L4.48303 6.18323C3.81678 5.0301 4.21222 3.53514 5.37851 2.86842L6.95976 1.96354Z" fill="black"/>
</svg>
