<svg width="170" height="44" viewBox="0 0 170 44" fill="none" xmlns="http://www.w3.org/2000/svg">
<g filter="url(#filter0_d_251_1624)">
<path d="M30.4723 20.7898C31.9169 19.5801 32.8355 17.7632 32.8355 15.7317C32.8355 13.7003 31.9169 11.8834 30.4723 10.6737C30.6379 10.5935 30.7972 10.5065 30.949 10.4122C31.9072 9.81648 33.0381 9.47241 34.2495 9.47241C37.7066 9.47241 40.5091 12.2749 40.5091 15.7317C40.5091 19.1886 37.7066 21.991 34.2495 21.991C33.0381 21.991 31.9072 21.6469 30.949 21.0513C30.7972 20.957 30.6379 20.87 30.4723 20.7898Z" fill="#3E97FF"/>
</g>
<g filter="url(#filter1_d_251_1624)">
<path d="M28.7336 16.7187C29.3797 14.9488 29.2668 12.916 28.251 11.1567C27.2352 9.39742 25.5311 8.28322 23.6752 7.95789C23.7785 7.80572 23.8729 7.6507 23.9571 7.49316C24.4891 6.49816 25.2965 5.63473 26.3456 5.02909C29.3396 3.30062 33.168 4.32637 34.8965 7.32015C36.625 10.3139 35.5993 14.1421 32.6052 15.8705C31.5562 16.4762 30.4047 16.7437 29.277 16.7069C29.0985 16.701 28.9169 16.7054 28.7336 16.7187Z" fill="#3E97FF"/>
</g>
<g filter="url(#filter2_d_251_1624)">
<path d="M25.1918 14.0603C24.8665 12.2045 23.7522 10.5005 21.9928 9.48477C20.2334 8.46903 18.2005 8.35612 16.4305 9.00226C16.444 8.81885 16.4482 8.63736 16.4423 8.45883C16.4056 7.33116 16.673 6.17971 17.2787 5.1307C19.0073 2.13692 22.8356 1.11117 25.8297 2.83963C28.8236 4.5681 29.8494 8.39624 28.1208 11.3901C27.5151 12.439 26.6517 13.2464 25.6566 13.7784C25.4991 13.8626 25.3441 13.957 25.1918 14.0603Z" fill="#3E97FF"/>
</g>
<g filter="url(#filter3_d_251_1624)">
<path d="M20.7932 13.53C19.5834 12.0854 17.7664 11.1669 15.7348 11.1669C13.7031 11.1669 11.8862 12.0854 10.6764 13.53C10.5963 13.3644 10.5093 13.2051 10.415 13.0533C9.81918 12.0952 9.4751 10.9643 9.4751 9.75299C9.4751 6.29605 12.2777 3.49365 15.7348 3.49365C19.1919 3.49365 21.9944 6.29605 21.9944 9.75299C21.9944 10.9643 21.6504 12.0952 21.0546 13.0533C20.9602 13.2051 20.8732 13.3644 20.7932 13.53Z" fill="#3E97FF"/>
</g>
<g filter="url(#filter4_d_251_1624)">
<path d="M16.7218 15.2682C14.9518 14.6221 12.9189 14.735 11.1595 15.7506C9.40004 16.7664 8.28578 18.4704 7.96044 20.3262C7.80826 20.2229 7.65323 20.1285 7.49567 20.0442C6.50062 19.5123 5.63714 18.7049 5.03146 17.6559C3.30289 14.6621 4.32869 10.834 7.32266 9.10551C10.3166 7.37704 14.145 8.40278 15.8736 11.3966C16.4793 12.4456 16.7468 13.597 16.7098 14.7247C16.7041 14.9032 16.7083 15.0847 16.7218 15.2682Z" fill="#3E97FF"/>
</g>
<g filter="url(#filter5_d_251_1624)">
<path d="M14.0611 18.8107C12.2051 19.136 10.501 20.2503 9.48524 22.0096C8.46944 23.7689 8.35652 25.8017 9.00271 27.5715C8.81926 27.5581 8.63775 27.5538 8.45918 27.5596C7.33146 27.5965 6.17995 27.329 5.13089 26.7234C2.13693 24.9948 1.11112 21.1668 2.83968 18.1729C4.56824 15.1792 8.3966 14.1534 11.3906 15.8819C12.4396 16.4875 13.247 17.3509 13.779 18.3459C13.8632 18.5034 13.9578 18.6585 14.0611 18.8107Z" fill="#3E97FF"/>
</g>
<g filter="url(#filter6_d_251_1624)">
<path d="M13.5283 23.2077C12.0837 24.4173 11.165 26.2343 11.165 28.2657C11.165 30.2972 12.0837 32.1141 13.5283 33.3238C13.3628 33.4038 13.2034 33.4909 13.0517 33.5852C12.0935 34.1809 10.9625 34.525 9.75113 34.525C6.29401 34.525 3.49146 31.7226 3.49146 28.2657C3.49146 24.8087 6.29401 22.0063 9.75113 22.0063C10.9625 22.0063 12.0935 22.3504 13.0517 22.9462C13.2034 23.0405 13.3628 23.1275 13.5283 23.2077Z" fill="#3E97FF"/>
</g>
<g filter="url(#filter7_d_251_1624)">
<path d="M15.2668 27.2803C14.6205 29.0501 14.7334 31.0829 15.7492 32.8422C16.765 34.6016 18.4691 35.7157 20.325 36.0411C20.2217 36.1933 20.1273 36.3483 20.0431 36.5059C19.5111 37.5008 18.7037 38.3642 17.6546 38.9699C14.6606 40.6984 10.8323 39.6726 9.10373 36.6789C7.37515 33.685 8.40097 29.8569 11.3949 28.1284C12.444 27.5228 13.5955 27.2553 14.7232 27.2922C14.9017 27.298 15.0833 27.2937 15.2668 27.2803Z" fill="#3E97FF"/>
</g>
<g filter="url(#filter8_d_251_1624)">
<path d="M18.8117 29.9397C19.137 31.7955 20.2513 33.4995 22.0107 34.5151C23.7701 35.5309 25.8032 35.6438 27.5731 34.9977C27.5597 35.1812 27.5554 35.3626 27.5612 35.5412C27.5981 36.6688 27.3306 37.8203 26.7249 38.8693C24.9963 41.8631 21.168 42.8888 18.174 41.1603C15.18 39.4319 14.1542 35.6038 15.8828 32.61C16.4885 31.561 17.3519 30.7536 18.3469 30.2216C18.5045 30.1374 18.6596 30.0429 18.8117 29.9397Z" fill="#3E97FF"/>
</g>
<g filter="url(#filter9_d_251_1624)">
<path d="M23.2087 30.4729C24.4185 31.9174 26.2355 32.836 28.2671 32.836C30.2988 32.836 32.1158 31.9174 33.3255 30.4729C33.4056 30.6385 33.4926 30.7978 33.587 30.9494C34.1827 31.9076 34.5268 33.0386 34.5268 34.2498C34.5268 37.7068 31.7243 40.5092 28.2671 40.5092C24.81 40.5092 22.0074 37.7068 22.0074 34.2498C22.0074 33.0386 22.3515 31.9076 22.9473 30.9494C23.0417 30.7978 23.1287 30.6385 23.2087 30.4729Z" fill="#3E97FF"/>
</g>
<g filter="url(#filter10_d_251_1624)">
<path d="M27.2815 28.7343C29.0514 29.3804 31.0843 29.2675 32.8437 28.2518C34.6032 27.2361 35.7174 25.5321 36.0428 23.6763C36.1949 23.7795 36.3499 23.874 36.5075 23.9582C37.5026 24.4902 38.3661 25.2976 38.9718 26.3465C40.7004 29.3404 39.6745 33.1684 36.6806 34.897C33.6866 36.6254 29.8583 35.5997 28.1297 32.6058C27.524 31.5569 27.2565 30.4054 27.2933 29.2778C27.2992 29.0993 27.2949 28.9177 27.2815 28.7343Z" fill="#3E97FF"/>
</g>
<g filter="url(#filter11_d_251_1624)">
<path d="M34.5185 21.9856C34.5172 21.9878 34.5159 21.99 34.5147 21.9922C33.499 23.7515 31.7949 24.8657 29.939 25.191C30.0422 25.3433 30.1367 25.4983 30.2209 25.6557C30.7529 26.6508 31.5603 27.5142 32.6094 28.1198C35.6034 29.8484 39.4317 28.8225 41.1603 25.8288C42.6422 23.2621 42.0997 20.0822 40.0281 18.1379C39.118 20.3218 37.0062 21.8796 34.5185 21.9856Z" fill="#3E97FF"/>
</g>
<path d="M55.5 33.5V10.2273H65.5455C67.2727 10.2273 68.7841 10.5682 70.0795 11.25C71.375 11.9318 72.3826 12.8902 73.1023 14.125C73.822 15.3598 74.1818 16.803 74.1818 18.4545C74.1818 20.1212 73.8106 21.5644 73.0682 22.7841C72.3333 24.0038 71.2992 24.9432 69.9659 25.6023C68.6402 26.2614 67.0909 26.5909 65.3182 26.5909H59.3182V21.6818H64.0455C64.7879 21.6818 65.4205 21.553 65.9432 21.2955C66.4735 21.0303 66.8788 20.6553 67.1591 20.1705C67.447 19.6856 67.5909 19.1136 67.5909 18.4545C67.5909 17.7879 67.447 17.2197 67.1591 16.75C66.8788 16.2727 66.4735 15.9091 65.9432 15.6591C65.4205 15.4015 64.7879 15.2727 64.0455 15.2727H61.8182V33.5H55.5ZM76.5909 33.5V16.0455H82.6818V19.3636H82.8636C83.1818 18.1364 83.6856 17.2386 84.375 16.6705C85.072 16.1023 85.8864 15.8182 86.8182 15.8182C87.0909 15.8182 87.3598 15.8409 87.625 15.8864C87.8977 15.9242 88.1591 15.9811 88.4091 16.0568V21.4091C88.0985 21.303 87.7159 21.2235 87.2614 21.1705C86.8068 21.1174 86.4167 21.0909 86.0909 21.0909C85.4773 21.0909 84.9242 21.2311 84.4318 21.5114C83.947 21.7841 83.5644 22.1705 83.2841 22.6705C83.0038 23.1629 82.8636 23.7424 82.8636 24.4091V33.5H76.5909ZM97.875 33.8182C95.9811 33.8182 94.3598 33.4432 93.0114 32.6932C91.6629 31.9356 90.6288 30.8826 89.9091 29.5341C89.1894 28.178 88.8295 26.6061 88.8295 24.8182C88.8295 23.0303 89.1894 21.4621 89.9091 20.1136C90.6288 18.7576 91.6629 17.7045 93.0114 16.9545C94.3598 16.197 95.9811 15.8182 97.875 15.8182C99.7689 15.8182 101.39 16.197 102.739 16.9545C104.087 17.7045 105.121 18.7576 105.841 20.1136C106.561 21.4621 106.92 23.0303 106.92 24.8182C106.92 26.6061 106.561 28.178 105.841 29.5341C105.121 30.8826 104.087 31.9356 102.739 32.6932C101.39 33.4432 99.7689 33.8182 97.875 33.8182ZM97.9205 29.1818C98.4508 29.1818 98.9091 29.0038 99.2955 28.6477C99.6818 28.2917 99.9811 27.7841 100.193 27.125C100.405 26.4659 100.511 25.6818 100.511 24.7727C100.511 23.8561 100.405 23.072 100.193 22.4205C99.9811 21.7614 99.6818 21.2538 99.2955 20.8977C98.9091 20.5417 98.4508 20.3636 97.9205 20.3636C97.3598 20.3636 96.8788 20.5417 96.4773 20.8977C96.0758 21.2538 95.7689 21.7614 95.5568 22.4205C95.3447 23.072 95.2386 23.8561 95.2386 24.7727C95.2386 25.6818 95.3447 26.4659 95.5568 27.125C95.7689 27.7841 96.0758 28.2917 96.4773 28.6477C96.8788 29.0038 97.3598 29.1818 97.9205 29.1818ZM109.466 16.0455H115.739V34.0909C115.739 35.6212 115.417 36.8182 114.773 37.6818C114.136 38.5455 113.242 39.1553 112.091 39.5114C110.939 39.8674 109.595 40.0455 108.057 40.0455C107.83 40.0455 107.621 40.0417 107.432 40.0341C107.235 40.0265 107.019 40.0152 106.784 40V35.3636C106.936 35.3788 107.068 35.3902 107.182 35.3977C107.288 35.4053 107.398 35.4091 107.511 35.4091C108.261 35.4091 108.773 35.2917 109.045 35.0568C109.326 34.8295 109.466 34.4621 109.466 33.9545V16.0455ZM112.602 14.2273C111.754 14.2273 111.027 13.947 110.42 13.3864C109.814 12.8258 109.511 12.1515 109.511 11.3636C109.511 10.5758 109.814 9.90151 110.42 9.34091C111.027 8.7803 111.754 8.5 112.602 8.5C113.458 8.5 114.186 8.7803 114.784 9.34091C115.39 9.90151 115.693 10.5758 115.693 11.3636C115.693 12.1515 115.39 12.8258 114.784 13.3864C114.186 13.947 113.458 14.2273 112.602 14.2273ZM127.298 33.8182C125.435 33.8182 123.829 33.4621 122.48 32.75C121.139 32.0303 120.105 31 119.378 29.6591C118.658 28.3106 118.298 26.697 118.298 24.8182C118.298 23.0152 118.662 21.4394 119.389 20.0909C120.116 18.7424 121.143 17.6932 122.469 16.9432C123.795 16.1932 125.359 15.8182 127.162 15.8182C128.48 15.8182 129.673 16.0227 130.741 16.4318C131.81 16.8409 132.723 17.4356 133.48 18.2159C134.238 18.9886 134.821 19.928 135.23 21.0341C135.639 22.1402 135.844 23.3864 135.844 24.7727V26.2273H120.253V22.7727H130.071C130.063 22.2727 129.935 21.8333 129.685 21.4545C129.442 21.0682 129.113 20.7689 128.696 20.5568C128.287 20.3371 127.821 20.2273 127.298 20.2273C126.791 20.2273 126.325 20.3371 125.901 20.5568C125.476 20.7689 125.135 21.0644 124.878 21.4432C124.628 21.822 124.495 22.2652 124.48 22.7727V26.5C124.48 27.0606 124.598 27.5606 124.832 28C125.067 28.4394 125.404 28.7841 125.844 29.0341C126.283 29.2841 126.813 29.4091 127.435 29.4091C127.866 29.4091 128.26 29.3485 128.616 29.2273C128.98 29.1061 129.291 28.9318 129.548 28.7045C129.806 28.4697 129.995 28.1894 130.116 27.8636H135.844C135.647 29.0758 135.181 30.1288 134.446 31.0227C133.711 31.9091 132.738 32.5985 131.526 33.0909C130.321 33.5758 128.912 33.8182 127.298 33.8182ZM146.812 33.8182C144.919 33.8182 143.297 33.4432 141.949 32.6932C140.6 31.9356 139.566 30.8826 138.847 29.5341C138.127 28.178 137.767 26.6061 137.767 24.8182C137.767 23.0303 138.127 21.4621 138.847 20.1136C139.566 18.7576 140.6 17.7045 141.949 16.9545C143.297 16.197 144.919 15.8182 146.812 15.8182C148.525 15.8182 150.006 16.1288 151.256 16.75C152.513 17.3636 153.487 18.2348 154.176 19.3636C154.866 20.4848 155.214 21.803 155.222 23.3182H149.403C149.32 22.4015 149.055 21.7045 148.608 21.2273C148.169 20.7424 147.6 20.5 146.903 20.5C146.358 20.5 145.881 20.6591 145.472 20.9773C145.063 21.2879 144.744 21.7614 144.517 22.3977C144.29 23.0265 144.176 23.8182 144.176 24.7727C144.176 25.7273 144.29 26.5227 144.517 27.1591C144.744 27.7879 145.063 28.2614 145.472 28.5795C145.881 28.8902 146.358 29.0455 146.903 29.0455C147.366 29.0455 147.775 28.9394 148.131 28.7273C148.487 28.5076 148.775 28.1894 148.994 27.7727C149.222 27.3485 149.358 26.8333 149.403 26.2273H155.222C155.199 27.7652 154.847 29.1061 154.165 30.25C153.483 31.3864 152.517 32.2652 151.267 32.8864C150.025 33.5076 148.54 33.8182 146.812 33.8182ZM168.219 16.0455V20.5909H156.719V16.0455H168.219ZM158.946 11.8636H165.219V27.8864C165.219 28.1288 165.26 28.3333 165.344 28.5C165.427 28.6591 165.556 28.7803 165.73 28.8636C165.904 28.9394 166.128 28.9773 166.401 28.9773C166.59 28.9773 166.81 28.9545 167.06 28.9091C167.317 28.8636 167.507 28.8258 167.628 28.7955L168.537 33.2045C168.257 33.2879 167.855 33.3902 167.332 33.5114C166.817 33.6326 166.204 33.7121 165.491 33.75C164.052 33.8258 162.844 33.678 161.866 33.3068C160.889 32.928 160.154 32.3333 159.662 31.5227C159.17 30.7121 158.931 29.697 158.946 28.4773V11.8636Z" fill="black"/>
<defs>
<filter id="filter0_d_251_1624" x="28.4723" y="7.47241" width="14.0369" height="16.5186" filterUnits="userSpaceOnUse" color-interpolation-filters="sRGB">
<feFlood flood-opacity="0" result="BackgroundImageFix"/>
<feColorMatrix in="SourceAlpha" type="matrix" values="0 0 0 0 0 0 0 0 0 0 0 0 0 0 0 0 0 0 127 0" result="hardAlpha"/>
<feOffset/>
<feGaussianBlur stdDeviation="1"/>
<feComposite in2="hardAlpha" operator="out"/>
<feColorMatrix type="matrix" values="0 0 0 0 1 0 0 0 0 1 0 0 0 0 1 0 0 0 0.25 0"/>
<feBlend mode="normal" in2="BackgroundImageFix" result="effect1_dropShadow_251_1624"/>
<feBlend mode="normal" in="SourceGraphic" in2="effect1_dropShadow_251_1624" result="shape"/>
</filter>
<filter id="filter1_d_251_1624" x="21.6752" y="2.18945" width="16.061" height="16.5293" filterUnits="userSpaceOnUse" color-interpolation-filters="sRGB">
<feFlood flood-opacity="0" result="BackgroundImageFix"/>
<feColorMatrix in="SourceAlpha" type="matrix" values="0 0 0 0 0 0 0 0 0 0 0 0 0 0 0 0 0 0 127 0" result="hardAlpha"/>
<feOffset/>
<feGaussianBlur stdDeviation="1"/>
<feComposite in2="hardAlpha" operator="out"/>
<feColorMatrix type="matrix" values="0 0 0 0 1 0 0 0 0 1 0 0 0 0 1 0 0 0 0.25 0"/>
<feBlend mode="normal" in2="BackgroundImageFix" result="effect1_dropShadow_251_1624"/>
<feBlend mode="normal" in="SourceGraphic" in2="effect1_dropShadow_251_1624" result="shape"/>
</filter>
<filter id="filter2_d_251_1624" x="14.4305" y="0" width="16.53" height="16.0603" filterUnits="userSpaceOnUse" color-interpolation-filters="sRGB">
<feFlood flood-opacity="0" result="BackgroundImageFix"/>
<feColorMatrix in="SourceAlpha" type="matrix" values="0 0 0 0 0 0 0 0 0 0 0 0 0 0 0 0 0 0 127 0" result="hardAlpha"/>
<feOffset/>
<feGaussianBlur stdDeviation="1"/>
<feComposite in2="hardAlpha" operator="out"/>
<feColorMatrix type="matrix" values="0 0 0 0 1 0 0 0 0 1 0 0 0 0 1 0 0 0 0.25 0"/>
<feBlend mode="normal" in2="BackgroundImageFix" result="effect1_dropShadow_251_1624"/>
<feBlend mode="normal" in="SourceGraphic" in2="effect1_dropShadow_251_1624" result="shape"/>
</filter>
<filter id="filter3_d_251_1624" x="7.4751" y="1.49365" width="16.5193" height="14.0364" filterUnits="userSpaceOnUse" color-interpolation-filters="sRGB">
<feFlood flood-opacity="0" result="BackgroundImageFix"/>
<feColorMatrix in="SourceAlpha" type="matrix" values="0 0 0 0 0 0 0 0 0 0 0 0 0 0 0 0 0 0 127 0" result="hardAlpha"/>
<feOffset/>
<feGaussianBlur stdDeviation="1"/>
<feComposite in2="hardAlpha" operator="out"/>
<feColorMatrix type="matrix" values="0 0 0 0 1 0 0 0 0 1 0 0 0 0 1 0 0 0 0.25 0"/>
<feBlend mode="normal" in2="BackgroundImageFix" result="effect1_dropShadow_251_1624"/>
<feBlend mode="normal" in="SourceGraphic" in2="effect1_dropShadow_251_1624" result="shape"/>
</filter>
<filter id="filter4_d_251_1624" x="2.19177" y="6.26587" width="16.53" height="16.0603" filterUnits="userSpaceOnUse" color-interpolation-filters="sRGB">
<feFlood flood-opacity="0" result="BackgroundImageFix"/>
<feColorMatrix in="SourceAlpha" type="matrix" values="0 0 0 0 0 0 0 0 0 0 0 0 0 0 0 0 0 0 127 0" result="hardAlpha"/>
<feOffset/>
<feGaussianBlur stdDeviation="1"/>
<feComposite in2="hardAlpha" operator="out"/>
<feColorMatrix type="matrix" values="0 0 0 0 1 0 0 0 0 1 0 0 0 0 1 0 0 0 0.25 0"/>
<feBlend mode="normal" in2="BackgroundImageFix" result="effect1_dropShadow_251_1624"/>
<feBlend mode="normal" in="SourceGraphic" in2="effect1_dropShadow_251_1624" result="shape"/>
</filter>
<filter id="filter5_d_251_1624" x="0" y="13.0422" width="16.061" height="16.5293" filterUnits="userSpaceOnUse" color-interpolation-filters="sRGB">
<feFlood flood-opacity="0" result="BackgroundImageFix"/>
<feColorMatrix in="SourceAlpha" type="matrix" values="0 0 0 0 0 0 0 0 0 0 0 0 0 0 0 0 0 0 127 0" result="hardAlpha"/>
<feOffset/>
<feGaussianBlur stdDeviation="1"/>
<feComposite in2="hardAlpha" operator="out"/>
<feColorMatrix type="matrix" values="0 0 0 0 1 0 0 0 0 1 0 0 0 0 1 0 0 0 0.25 0"/>
<feBlend mode="normal" in2="BackgroundImageFix" result="effect1_dropShadow_251_1624"/>
<feBlend mode="normal" in="SourceGraphic" in2="effect1_dropShadow_251_1624" result="shape"/>
</filter>
<filter id="filter6_d_251_1624" x="1.49146" y="20.0063" width="14.0369" height="16.5186" filterUnits="userSpaceOnUse" color-interpolation-filters="sRGB">
<feFlood flood-opacity="0" result="BackgroundImageFix"/>
<feColorMatrix in="SourceAlpha" type="matrix" values="0 0 0 0 0 0 0 0 0 0 0 0 0 0 0 0 0 0 127 0" result="hardAlpha"/>
<feOffset/>
<feGaussianBlur stdDeviation="1"/>
<feComposite in2="hardAlpha" operator="out"/>
<feColorMatrix type="matrix" values="0 0 0 0 1 0 0 0 0 1 0 0 0 0 1 0 0 0 0.25 0"/>
<feBlend mode="normal" in2="BackgroundImageFix" result="effect1_dropShadow_251_1624"/>
<feBlend mode="normal" in="SourceGraphic" in2="effect1_dropShadow_251_1624" result="shape"/>
</filter>
<filter id="filter7_d_251_1624" x="6.26404" y="25.2803" width="16.061" height="16.5293" filterUnits="userSpaceOnUse" color-interpolation-filters="sRGB">
<feFlood flood-opacity="0" result="BackgroundImageFix"/>
<feColorMatrix in="SourceAlpha" type="matrix" values="0 0 0 0 0 0 0 0 0 0 0 0 0 0 0 0 0 0 127 0" result="hardAlpha"/>
<feOffset/>
<feGaussianBlur stdDeviation="1"/>
<feComposite in2="hardAlpha" operator="out"/>
<feColorMatrix type="matrix" values="0 0 0 0 1 0 0 0 0 1 0 0 0 0 1 0 0 0 0.25 0"/>
<feBlend mode="normal" in2="BackgroundImageFix" result="effect1_dropShadow_251_1624"/>
<feBlend mode="normal" in="SourceGraphic" in2="effect1_dropShadow_251_1624" result="shape"/>
</filter>
<filter id="filter8_d_251_1624" x="13.0431" y="27.9397" width="16.53" height="16.0603" filterUnits="userSpaceOnUse" color-interpolation-filters="sRGB">
<feFlood flood-opacity="0" result="BackgroundImageFix"/>
<feColorMatrix in="SourceAlpha" type="matrix" values="0 0 0 0 0 0 0 0 0 0 0 0 0 0 0 0 0 0 127 0" result="hardAlpha"/>
<feOffset/>
<feGaussianBlur stdDeviation="1"/>
<feComposite in2="hardAlpha" operator="out"/>
<feColorMatrix type="matrix" values="0 0 0 0 1 0 0 0 0 1 0 0 0 0 1 0 0 0 0.25 0"/>
<feBlend mode="normal" in2="BackgroundImageFix" result="effect1_dropShadow_251_1624"/>
<feBlend mode="normal" in="SourceGraphic" in2="effect1_dropShadow_251_1624" result="shape"/>
</filter>
<filter id="filter9_d_251_1624" x="20.0074" y="28.4729" width="16.5194" height="14.0364" filterUnits="userSpaceOnUse" color-interpolation-filters="sRGB">
<feFlood flood-opacity="0" result="BackgroundImageFix"/>
<feColorMatrix in="SourceAlpha" type="matrix" values="0 0 0 0 0 0 0 0 0 0 0 0 0 0 0 0 0 0 127 0" result="hardAlpha"/>
<feOffset/>
<feGaussianBlur stdDeviation="1"/>
<feComposite in2="hardAlpha" operator="out"/>
<feColorMatrix type="matrix" values="0 0 0 0 1 0 0 0 0 1 0 0 0 0 1 0 0 0 0.25 0"/>
<feBlend mode="normal" in2="BackgroundImageFix" result="effect1_dropShadow_251_1624"/>
<feBlend mode="normal" in="SourceGraphic" in2="effect1_dropShadow_251_1624" result="shape"/>
</filter>
<filter id="filter10_d_251_1624" x="25.2815" y="21.6763" width="16.53" height="16.0603" filterUnits="userSpaceOnUse" color-interpolation-filters="sRGB">
<feFlood flood-opacity="0" result="BackgroundImageFix"/>
<feColorMatrix in="SourceAlpha" type="matrix" values="0 0 0 0 0 0 0 0 0 0 0 0 0 0 0 0 0 0 127 0" result="hardAlpha"/>
<feOffset/>
<feGaussianBlur stdDeviation="1"/>
<feComposite in2="hardAlpha" operator="out"/>
<feColorMatrix type="matrix" values="0 0 0 0 1 0 0 0 0 1 0 0 0 0 1 0 0 0 0.25 0"/>
<feBlend mode="normal" in2="BackgroundImageFix" result="effect1_dropShadow_251_1624"/>
<feBlend mode="normal" in="SourceGraphic" in2="effect1_dropShadow_251_1624" result="shape"/>
</filter>
<filter id="filter11_d_251_1624" x="27.939" y="16.1379" width="16.0609" height="14.8215" filterUnits="userSpaceOnUse" color-interpolation-filters="sRGB">
<feFlood flood-opacity="0" result="BackgroundImageFix"/>
<feColorMatrix in="SourceAlpha" type="matrix" values="0 0 0 0 0 0 0 0 0 0 0 0 0 0 0 0 0 0 127 0" result="hardAlpha"/>
<feOffset/>
<feGaussianBlur stdDeviation="1"/>
<feComposite in2="hardAlpha" operator="out"/>
<feColorMatrix type="matrix" values="0 0 0 0 1 0 0 0 0 1 0 0 0 0 1 0 0 0 0.25 0"/>
<feBlend mode="normal" in2="BackgroundImageFix" result="effect1_dropShadow_251_1624"/>
<feBlend mode="normal" in="SourceGraphic" in2="effect1_dropShadow_251_1624" result="shape"/>
</filter>
</defs>
</svg>
